<svg xmlns="http://www.w3.org/2000/svg" fill="#FFF" stroke="#FFF" width="25.075" height="24.951" viewBox="0 0 25.075 24.951">
  <path id="Icon_awesome-twitter-square" data-name="Icon awesome-twitter-square" d="M22.389,2.25H2.687A2.681,2.681,0,0,0,0,4.923v19.6A2.681,2.681,0,0,0,2.687,27.2h19.7a2.681,2.681,0,0,0,2.687-2.673V4.923A2.681,2.681,0,0,0,22.389,2.25Zm-2.737,8.844c.011.156.011.317.011.473A10.346,10.346,0,0,1,9.218,21.96a10.434,10.434,0,0,1-5.636-1.637,7.772,7.772,0,0,0,.884.045,7.383,7.383,0,0,0,4.556-1.559,3.674,3.674,0,0,1-3.431-2.534,3.975,3.975,0,0,0,1.657-.067A3.658,3.658,0,0,1,4.31,12.62v-.045a3.682,3.682,0,0,0,1.657.462A3.64,3.64,0,0,1,4.332,10a3.593,3.593,0,0,1,.5-1.843A10.44,10.44,0,0,0,12.4,11.974a3.679,3.679,0,0,1,6.263-3.336,7.215,7.215,0,0,0,2.328-.88,3.647,3.647,0,0,1-1.612,2.011A7.334,7.334,0,0,0,21.493,9.2,7.706,7.706,0,0,1,19.652,11.094Z" transform="translate(0 -2.25)" fill="#FFF"/>
</svg>
