<svg xmlns="http://www.w3.org/2000/svg" fill="#FFF" stroke="#FFF" width="21.785" height="24.952" viewBox="0 0 21.785 24.952">
  <path id="Icon_simple-tiktok" data-name="Icon simple-tiktok" d="M13.81.021C15.179,0,16.537.01,17.9,0a6.46,6.46,0,0,0,1.828,4.335A7.387,7.387,0,0,0,24.154,6.2v4.19a11.229,11.229,0,0,1-4.388-1.008,12.926,12.926,0,0,1-1.693-.967c-.01,3.036.01,6.071-.021,9.1a7.915,7.915,0,0,1-1.41,4.1,7.794,7.794,0,0,1-6.175,3.337A7.648,7.648,0,0,1,6.2,23.87,7.837,7.837,0,0,1,2.39,17.934c-.021-.52-.031-1.04-.01-1.549A7.857,7.857,0,0,1,11.5,9.44c.021,1.539-.042,3.077-.042,4.616a3.672,3.672,0,0,0-3.155.385A3.613,3.613,0,0,0,6.883,16.26a4.1,4.1,0,0,0-.146,1.674,3.551,3.551,0,0,0,3.657,2.984,3.513,3.513,0,0,0,2.894-1.674,2.392,2.392,0,0,0,.428-1.1c.1-1.861.063-3.711.073-5.572.01-4.19-.01-8.369.021-12.548Z" transform="translate(-2.369)" fill="#FFF"/>
</svg>
