<svg xmlns="http://www.w3.org/2000/svg" fill="#FFF" stroke="#FFF" width="35.663" height="24.951" viewBox="0 0 35.663 24.951">
  <path id="Icon_awesome-youtube" data-name="Icon awesome-youtube" d="M35.967,8.4a4.47,4.47,0,0,0-3.153-3.158C30.033,4.5,18.881,4.5,18.881,4.5s-11.152,0-13.933.746A4.47,4.47,0,0,0,1.8,8.4C1.05,11.189,1.05,17,1.05,17s0,5.811.745,8.6A4.4,4.4,0,0,0,4.948,28.7c2.781.746,13.933.746,13.933.746s11.152,0,13.933-.746A4.4,4.4,0,0,0,35.967,25.6c.745-2.785.745-8.6.745-8.6s0-5.811-.745-8.6ZM15.234,22.277V11.724L24.555,17l-9.321,5.276Z" transform="translate(-1.05 -4.5)" fill="#FFF"/>
</svg>
