<svg xmlns="http://www.w3.org/2000/svg" fill="#FFF" stroke="#FFF" width="24.887" height="24.758" viewBox="0 0 24.887 24.758">
  <path id="Icon_awesome-instagram" data-name="Icon awesome-instagram" d="M12.441,8.269a6.348,6.348,0,1,0,6.379,6.348A6.353,6.353,0,0,0,12.441,8.269Zm0,10.475a4.127,4.127,0,1,1,4.147-4.127,4.145,4.145,0,0,1-4.147,4.127ZM20.569,8.009a1.488,1.488,0,1,1-1.488-1.481A1.481,1.481,0,0,1,20.569,8.009Zm4.225,1.5a7.307,7.307,0,0,0-2.01-5.188,7.432,7.432,0,0,0-5.213-2c-2.054-.116-8.211-.116-10.266,0A7.422,7.422,0,0,0,2.092,4.319,7.331,7.331,0,0,0,.082,9.507c-.117,2.044-.117,8.171,0,10.215a7.307,7.307,0,0,0,2.01,5.188,7.442,7.442,0,0,0,5.213,2c2.054.116,8.211.116,10.266,0a7.384,7.384,0,0,0,5.213-2,7.355,7.355,0,0,0,2.01-5.188c.117-2.044.117-8.165,0-10.209Zm-2.654,12.4a4.189,4.189,0,0,1-2.365,2.353c-1.638.646-5.524.5-7.334.5s-5.7.144-7.334-.5a4.189,4.189,0,0,1-2.365-2.353c-.65-1.63-.5-5.5-.5-7.3s-.144-5.674.5-7.3A4.189,4.189,0,0,1,5.107,4.965c1.638-.646,5.524-.5,7.334-.5s5.7-.144,7.334.5A4.189,4.189,0,0,1,22.14,7.319c.65,1.63.5,5.5.5,7.3S22.79,20.291,22.14,21.915Z" transform="translate(0.005 -2.238)" fill="#FFF"/>
</svg>
