<svg xmlns="http://www.w3.org/2000/svg" fill="#FFF" stroke="#FFF" width="25.699" height="25.571" viewBox="0 0 25.699 25.571">
  <path id="Icon_awesome-linkedin-in" data-name="Icon awesome-linkedin-in" d="M5.752,25.572H.424V8.5H5.752ZM3.086,6.17a3.085,3.085,0,1,1,3.086-3.1A3.1,3.1,0,0,1,3.086,6.17Zm22.608,19.4H20.377V17.261c0-1.981-.04-4.521-2.77-4.521-2.77,0-3.195,2.152-3.195,4.378v8.454H9.09V8.5H14.2v2.329h.075a5.6,5.6,0,0,1,5.041-2.757c5.392,0,6.383,3.533,6.383,8.122v9.378Z" transform="translate(0 -0.001)" fill="#FFF"/>
</svg>
