<svg id="Twitter" xmlns="http://www.w3.org/2000/svg" width="41.801" height="41.801" viewBox="0 0 41.801 41.801">
  <circle id="Ellipse_6" data-name="Ellipse 6" cx="20.9" cy="20.9" r="20.9" fill="#fff"/>
  <path id="Icon_awesome-twitter" data-name="Icon awesome-twitter" d="M19.954,4.5c.014.2.014.4.014.593A12.88,12.88,0,0,1,7,18.063a12.881,12.881,0,0,1-7-2.046,9.429,9.429,0,0,0,1.1.056A9.129,9.129,0,0,0,6.76,14.126,4.566,4.566,0,0,1,2.5,10.965a5.748,5.748,0,0,0,.861.071,4.821,4.821,0,0,0,1.2-.155A4.559,4.559,0,0,1,.9,6.407V6.35a4.591,4.591,0,0,0,2.06.579A4.565,4.565,0,0,1,1.552.833a12.956,12.956,0,0,0,9.4,4.77,5.146,5.146,0,0,1-.113-1.044,4.563,4.563,0,0,1,7.889-3.119A8.974,8.974,0,0,0,21.62.339a4.546,4.546,0,0,1-2,2.512,9.138,9.138,0,0,0,2.625-.706A9.8,9.8,0,0,1,19.954,4.5Z" transform="translate(8.79 13.346) rotate(-8)" fill="#5f1332"/>
</svg>
