<svg id="Youtube" xmlns="http://www.w3.org/2000/svg" width="41.515" height="41.515" viewBox="0 0 41.515 41.515">
  <circle id="Ellipse_6" data-name="Ellipse 6" cx="20.757" cy="20.757" r="20.757" fill="#fff"/>
  <path id="Icon_awesome-youtube" data-name="Icon awesome-youtube" d="M24.966,7.187a3.069,3.069,0,0,0-2.16-2.174C20.9,4.5,13.263,4.5,13.263,4.5s-7.638,0-9.543.514A3.069,3.069,0,0,0,1.56,7.187,32.2,32.2,0,0,0,1.05,13.1a32.2,32.2,0,0,0,.51,5.917,3.023,3.023,0,0,0,2.16,2.139c1.9.514,9.543.514,9.543.514s7.638,0,9.543-.514a3.023,3.023,0,0,0,2.16-2.139,32.2,32.2,0,0,0,.51-5.917A32.2,32.2,0,0,0,24.966,7.187Zm-14.2,9.549V9.473L17.149,13.1l-6.384,3.632Z" transform="translate(7.575 8.026)" fill="#5f1332"/>
</svg>
