<svg id="XMLID_1_" xmlns="http://www.w3.org/2000/svg" width="48.934" height="48.566" viewBox="0 0 48.934 48.566">
  <path id="Tracé_70" data-name="Tracé 70" d="M14.519,9.09l17.963,3.568a3.012,3.012,0,0,1,2.426,2.977v20.8a3.054,3.054,0,0,1-3.058,3.058H13.5a1.01,1.01,0,0,0,1.019-1.019V37.452H31.85a1.022,1.022,0,0,0,1.019-1.019v-20.8a1.024,1.024,0,0,0-.8-1L14.519,11.17Z" transform="translate(14.026 9.076)" fill="#5f1332"/>
  <path id="Tracé_71" data-name="Tracé 71" d="M22.1,14a1.019,1.019,0,0,1,0,2.039H18.019a1.019,1.019,0,1,1,0-2.039Z" transform="translate(17.662 14.177)" fill="#5f1332"/>
  <path id="Tracé_72" data-name="Tracé 72" d="M22.1,17a1.019,1.019,0,0,1,0,2.039H18.019a1.019,1.019,0,1,1,0-2.039Z" transform="translate(17.662 17.294)" fill="#5f1332"/>
  <path id="Tracé_73" data-name="Tracé 73" d="M22.1,20a1.019,1.019,0,1,1,0,2.039H18.019a1.019,1.019,0,1,1,0-2.039Z" transform="translate(17.662 20.411)" fill="#5f1332"/>
  <path id="Tracé_74" data-name="Tracé 74" d="M15.039,38.564a1.019,1.019,0,0,1-2.039,0V10.019a1.084,1.084,0,0,1,.367-.8,1.072,1.072,0,0,1,.856-.2l.816.163V38.564Z" transform="translate(13.506 8.983)" fill="#5f1332"/>
  <path id="Tracé_75" data-name="Tracé 75" d="M16.636,23v1.019a1.01,1.01,0,0,0,1.019,1.019H9.5a1.01,1.01,0,0,0,1.019-1.019V23Z" transform="translate(9.87 23.527)" fill="#5f1332"/>
  <path id="Tracé_76" data-name="Tracé 76" d="M13.1,5a1.019,1.019,0,1,1,0,2.039H9.019A1.019,1.019,0,1,1,9.019,5Z" transform="translate(8.312 4.827)" fill="#5f1332"/>
  <path id="Tracé_77" data-name="Tracé 77" d="M14.117,9.019A1.01,1.01,0,0,1,13.1,10.039H9.019A1.019,1.019,0,1,1,9.019,8H13.1A1.01,1.01,0,0,1,14.117,9.019Z" transform="translate(8.312 7.943)" fill="#5f1332"/>
  <path id="Tracé_78" data-name="Tracé 78" d="M13.1,11a1.019,1.019,0,1,1,0,2.039H9.019a1.019,1.019,0,1,1,0-2.039Z" transform="translate(8.312 11.06)" fill="#5f1332"/>
  <path id="Tracé_79" data-name="Tracé 79" d="M13.1,14a1.019,1.019,0,0,1,0,2.039H9.019a1.019,1.019,0,0,1,0-2.039Z" transform="translate(8.312 14.177)" fill="#5f1332"/>
  <path id="Tracé_80" data-name="Tracé 80" d="M9.117,15.019A1.01,1.01,0,0,1,8.1,16.039H4.019a1.019,1.019,0,0,1,0-2.039H8.1A1.01,1.01,0,0,1,9.117,15.019Z" transform="translate(3.117 14.177)" fill="#5f1332"/>
  <path id="Tracé_81" data-name="Tracé 81" d="M8.1,5a1.019,1.019,0,0,1,0,2.039H4.019A1.019,1.019,0,1,1,4.019,5Z" transform="translate(3.117 4.827)" fill="#5f1332"/>
  <path id="Tracé_82" data-name="Tracé 82" d="M8.1,8a1.019,1.019,0,0,1,0,2.039H4.019A1.019,1.019,0,0,1,4.019,8Z" transform="translate(3.117 7.943)" fill="#5f1332"/>
  <path id="Tracé_83" data-name="Tracé 83" d="M8.1,11a1.019,1.019,0,0,1,0,2.039H4.019a1.019,1.019,0,1,1,0-2.039Z" transform="translate(3.117 11.06)" fill="#5f1332"/>
  <path id="Tracé_84" data-name="Tracé 84" d="M14.195,20.058a1.022,1.022,0,0,0-1.019-1.019H7.058a1.01,1.01,0,0,0-1.019,1.019v9.175H4V20.058A3.054,3.054,0,0,1,7.058,17h6.117a3.054,3.054,0,0,1,3.058,3.058v9.175H14.195Z" transform="translate(4.156 17.294)" fill="#5f1332"/>
  <path id="Tracé_85" data-name="Tracé 85" d="M6.039,23H16.234v1.019a1.01,1.01,0,0,1-1.019,1.019H5.019A1.01,1.01,0,0,1,4,24.019V23Z" transform="translate(4.156 23.527)" fill="#5f1332"/>
  <path id="Tracé_86" data-name="Tracé 86" d="M3.568.22,25.976,3.625a3.047,3.047,0,0,1,2.569,3.018v11.7l-.816-.163a1.072,1.072,0,0,0-.856.2,1.084,1.084,0,0,0-.367.8V6.643a1.031,1.031,0,0,0-.856-1.019L3.242,2.239a.564.564,0,0,0-.184-.02.962.962,0,0,0-.652.245.975.975,0,0,0-.367.775V45.689a1.022,1.022,0,0,0,1.019,1.019h5.1v1.019a1.01,1.01,0,0,0,1.019,1.019H3.058A3.054,3.054,0,0,1,0,45.689V3.238A3,3,0,0,1,1.081.913,3.061,3.061,0,0,1,3.568.22Z" transform="translate(0 -0.181)" fill="#5f1332"/>
</svg>
