<svg xmlns="http://www.w3.org/2000/svg" width="890.286" height="792.298" viewBox="0 0 890.286 792.298">
  <g id="noun_Rugby_1703881" transform="translate(647.333 -4.092) rotate(60)" opacity="0.028">
    <path id="Tracé_60" data-name="Tracé 60" d="M245.524.361C112.637.361,4.517,168.548,4.517,375.222s108.12,374.861,241.007,374.861S486.532,581.9,486.532,375.222,378.412.361,245.524.361Zm141.132,375.7c0,188.767-64.64,348.226-141.132,348.226-62.064,0-116.3-104.931-134.594-245.291h17.263a12.883,12.883,0,1,0,0-25.766H108.16c-1.1-11.434-1.965-23-2.577-34.784h17.392a12.883,12.883,0,0,0,0-25.766H104.714c-.1-5.54-.354-10.983-.354-16.587,0-6.152.258-12.174.387-18.229h18.229a12.883,12.883,0,1,0,0-25.766h-17.3q.966-17.682,2.609-34.816H131.51a12.883,12.883,0,0,0,0-25.766H111.123c18.423-140.488,72.531-245.388,134.4-245.388C322.017,26.127,386.657,186.39,386.657,376.059Zm-356.406-.837c0-140.134,51.306-260.911,124.932-316.437-33.818,48.214-59,123.129-70.148,212.7H75.663a12.883,12.883,0,1,0,0,25.766h6.506c-1.031,11.4-1.8,23.028-2.383,34.816H67.128a12.883,12.883,0,0,0,0,25.766H79.013c-.129,6.087-.386,12.078-.386,18.229,0,5.6.258,11.047.354,16.587H67.128a12.883,12.883,0,0,0,0,25.766H79.689c.58,11.756,1.321,23.415,2.351,34.784H72.346a12.883,12.883,0,1,0,0,25.766H84.939c11.015,89.279,36.04,164,69.793,212.279C81.331,635.586,30.251,515.034,30.251,375.222Zm306.1,316.018c46.056-65.9,76.074-181.134,76.074-315.181,0-135.11-30.243-251.185-76.589-317.242,73.626,55.525,124.932,176.3,124.932,316.4C460.766,515.034,409.717,635.554,336.349,691.24Z" transform="translate(0 0)" fill="#5f1332"/>
  </g>
</svg>
